<svg width="261" height="66" xmlns="http://www.w3.org/2000/svg" xmlns:svg="http://www.w3.org/2000/svg">
 <style type="text/css">.st0{fill:#0D72B9;}</style>
 <g>
  <title>Layer 1</title>
  <g id="svg_1">
   <path id="svg_2" d="m97.1,17.399999l-2.6,5.4c-2.9,-1.7 -6.5,-2.8 -8.7,-2.8c-1.8,0 -3,0.7 -3,2c0,4.7 14.4,2 14.4,11.9c0,5.4 -4.8,8.3 -10.9,8.3c-4.6,0 -9.2,-1.7 -12.5,-4.4l2.7,-5.3c2.8,2.5 7,4.1 9.8,4.1c2.2,0 3.5,-0.8 3.5,-2.4c0,-4.8 -14.4,-1.9 -14.4,-11.6c0,-5 4.3,-8.2 10.9,-8.2c3.9,-0.1 8,1.1 10.8,3z" class="st0"/>
   <path id="svg_3" d="m119.4,28.199999l0,13.7l-6.6,0l0,-2.4c-1.4,1.8 -3.6,2.7 -6.4,2.7c-4.5,0 -7.2,-2.7 -7.2,-6.6c0,-4 2.8,-6.3 8.1,-6.3l5.5,0l0,-0.3c0,-2.1 -1.4,-3.3 -4.1,-3.3c-1.8,0 -4,0.6 -6.3,1.8l-1.9,-4.4c3.3,-1.5 6.2,-2.4 9.7,-2.4c5.8,-0.1 9.2,2.7 9.2,7.5zm-6.6,6.6l0,-1.9l-4.2,0c-2,0 -3,0.7 -3,2.3c0,1.5 1.1,2.5 3,2.5c2,-0.1 3.8,-1.2 4.2,-2.9z" class="st0"/>
   <path id="svg_4" d="m132.1,20.299999l0,1.5l4.7,0l0,4.5l-4.7,0l0,15.6l-6.7,0l0,-15.6l-2.8,0l0,-4.4l2.8,0l0,-1.9c0,-4.6 3.5,-7.2 8,-7.2c2.1,0 4.3,0.5 5.9,1.5l-2.4,4.7c-0.7,-0.5 -1.7,-0.9 -2.5,-0.9c-1.2,-0.1 -2.3,0.7 -2.3,2.2z" class="st0"/>
   <path id="svg_5" d="m158.6,33.199999l-14.7,0c0.7,2.5 2.5,3.9 4.9,3.9c1.8,0 3.6,-0.7 5,-2.1l3.5,3.5c-2.1,2.3 -5.3,3.7 -9.1,3.7c-6.8,0 -11.1,-4.3 -11.1,-10.7c0,-6.5 4.4,-10.8 10.9,-10.8c7.4,0 11.1,4.8 10.6,12.5zm-6.4,-3.6c0,-2.6 -1.6,-4.2 -4,-4.2c-2.3,0 -3.9,1.7 -4.4,4.2l8.4,0z" class="st0"/>
   <path id="svg_6" d="m185.6,18.699999l-2.7,3.3c-2,-2.1 -4.8,-3.5 -7.6,-3.5c-5.4,0 -9.7,4.2 -9.7,9.6c0,5.4 4.3,9.6 9.7,9.6c2.7,0 5.5,-1.2 7.6,-3.2l2.7,3c-2.8,2.7 -6.7,4.5 -10.5,4.5c-8,0 -14.2,-6 -14.2,-13.9c0,-7.7 6.3,-13.7 14.3,-13.7c3.9,0.1 7.7,1.7 10.4,4.3z" class="st0"/>
   <path id="svg_7" d="m194.5,25.299999c1.4,-2.8 3.9,-4.3 7.2,-4.3l0,4.3c-4.2,-0.2 -6.8,2.2 -7.2,5.8l0,10.8l-4.5,0l0,-20.7l4.5,0l0,4.1z" class="st0"/>
   <path id="svg_8" d="m225,31.499999c0,6.2 -4.4,10.5 -10.8,10.5c-6.4,0 -10.8,-4.3 -10.8,-10.5c0,-6.3 4.4,-10.5 10.8,-10.5c6.4,0 10.8,4.3 10.8,10.5zm-17.1,0.1c0,4 2.6,6.7 6.3,6.7c3.7,0 6.3,-2.7 6.3,-6.7c0,-4 -2.6,-6.7 -6.3,-6.7c-3.7,0 -6.3,2.7 -6.3,6.7z" class="st0"/>
   <path id="svg_9" d="m248.4,41.899999l-5.3,-15.3l-5.3,15.3l-4.6,0l-7.6,-20.7l4.6,0l5.4,16.3l5.2,-16.3l4.6,0l5.3,16.3l5.3,-16.3l4.6,0l-7.5,20.7l-4.7,0z" class="st0"/>
  </g>
  <path id="svg_10" d="m56.9,12.899999l0,-12.9l-56.9,0l0,33c0,3.5 0.9,6.9 2.7,9.9c1.8,3 3.9,5.9 6.2,8.5c7.6,-20.3 25.9,-35.4 48,-38.5z" class="st0"/>
  <path id="svg_11" d="m65.3,12.299999c-0.2,0 -0.4,0 -0.7,0c-2.7,1.1 -5.2,2.5 -7.7,4l0,0c-16.6,10.2 -27.9,28.4 -28.6,49.2c0.1,0 0.1,0.1 0.2,0.1c10.8,-4.7 19.8,-12.6 25.8,-22.6c1.8,-3 2.7,-6.4 2.7,-9.9l0,-12.6c4,-3.2 8.4,-5.9 13.2,-8c-1.7,-0.1 -3.3,-0.2 -4.9,-0.2z" class="st0"/>
 </g>
</svg>
